<?xml version="1.0" encoding="iso-8859-1"?>
<!-- Generator: Adobe Illustrator 24.3.0, SVG Export Plug-In . SVG Version: 6.00 Build 0)  -->
<svg version="1.1" id="Layer_1" xmlns="http://www.w3.org/2000/svg" xmlns:xlink="http://www.w3.org/1999/xlink" x="0px" y="0px"
	 viewBox="0 0 160 160" style="enable-background:new 0 0 160 160;" xml:space="preserve">
<path style="fill:#020203;" d="M138.888,7.122v8.433l-15.527-8.588V3.475l-7.815-3.457v25.336h-9.067V0.028H91.849v4.374H68.151
	V0.028h-14.62v25.325h-9.046V0.018l-7.836,3.457v3.493l-15.527,8.588V7.122L2.725,18.425v33.764L18.252,62.59v35.428
	c-0.026,34.088,27.506,61.785,61.593,61.964h0.319c34.086-0.181,61.616-27.877,61.593-61.964V62.59l15.517-10.401V18.425
	L138.888,7.122z M147.1,46.754l-10.999,7.377l-4.518,3.019v40.863c0.015,28.471-22.968,51.609-51.439,51.784h-0.268
	c-28.475-0.17-51.464-23.309-51.449-51.784V57.15l-4.508-3.024L12.9,46.754V28.816l10.205,7.073v5.43L38.637,51.72v45.942
	c0.18-1.988,0.509-3.96,0.984-5.899c0.134-0.572,0.288-1.133,0.448-1.69c0.676-2.386,1.576-4.702,2.689-6.919
	c0.273-0.572,0.567-1.144,0.881-1.69c1.362-2.465,2.973-4.785,4.806-6.924c0.118-0.139,0.242-0.283,0.366-0.417V46.331H59.27v6.96
	h41.46v-6.96h10.53v27.912c0.093,0.113,0.191,0.216,0.283,0.325c1.834,2.138,3.444,4.458,4.806,6.924
	c0.314,0.546,0.608,1.118,0.881,1.69c1.113,2.216,2.013,4.533,2.689,6.919c0.16,0.556,0.314,1.118,0.448,1.69
	c0.553,2.268,0.91,4.579,1.066,6.908V51.73l15.517-10.401v-5.007l10.149-7.212V46.754z"/>
<path style="fill:#E62929;" d="M110.008,72.857H49.981c15.838-16.576,42.116-17.174,58.692-1.335
	C109.128,71.957,109.573,72.402,110.008,72.857z"/>
<path style="fill:#E62929;" d="M116.35,81.466H43.64c1.362-2.465,2.973-4.785,4.806-6.924h63.097
	C113.377,76.68,114.988,79,116.35,81.466z"/>
<path style="fill:#E62929;" d="M119.92,90.074H40.07c0.676-2.386,1.576-4.702,2.689-6.919h74.472
	C118.344,85.372,119.244,87.688,119.92,90.074z"/>
<path style="fill:#E62929;" d="M121.435,98.672L121.435,98.672H38.637v-1.03c0.18-1.988,0.509-3.96,0.984-5.899h80.747
	C120.922,94.018,121.279,96.336,121.435,98.672z"/>
<path style="fill:#E62929;" d="M121.527,100.372H38.462c0,0.397,0,0.793,0,1.19c-0.001,1.916,0.132,3.831,0.397,5.729
	c0.072,0.556,0.165,1.128,0.263,1.69c4.104,22.579,25.734,37.557,48.314,33.453c17.03-3.095,30.358-16.423,33.453-33.453
	c0.098-0.562,0.191-1.133,0.263-1.69c0.265-1.898,0.398-3.812,0.397-5.729C121.538,101.166,121.527,100.769,121.527,100.372z
	 M111.544,108.981c-4.097,17.427-21.546,28.232-38.972,24.135c-11.972-2.815-21.321-12.163-24.135-24.135
	c-0.124-0.562-0.247-1.123-0.335-1.69h63.788C111.791,107.858,111.677,108.419,111.544,108.981L111.544,108.981z"/>
</svg>
