<svg width="22" height="24" viewBox="0 0 22 24" fill="none" xmlns="http://www.w3.org/2000/svg">
<path d="M11 0C11.7969 0 12.5 0.703125 12.5 1.5V2.4375C15.9219 3.09375 18.5 6.14062 18.5 9.75V10.9688C18.5 13.0781 19.2031 15.1406 20.5156 16.8281L21.2188 17.6719C21.5 18.0469 21.5469 18.5156 21.3594 18.8906C21.1719 19.2656 20.7969 19.5 20.375 19.5H1.625C1.15625 19.5 0.78125 19.2656 0.59375 18.8906C0.40625 18.5156 0.453125 18.0469 0.734375 17.6719L1.4375 16.8281C2.75 15.1406 3.5 13.0781 3.5 10.9688V9.75C3.5 6.14062 6.07812 3.09375 9.5 2.4375V1.5C9.5 0.703125 10.1562 0 11 0ZM11 4.5C8.09375 4.5 5.75 6.89062 5.75 9.75V10.9688C5.75 13.2188 5.09375 15.375 3.875 17.25H18.0781C16.8594 15.375 16.25 13.2188 16.25 10.9688V9.75C16.25 6.89062 13.8594 4.5 11 4.5ZM14 21C14 21.7969 13.6719 22.5938 13.1094 23.1562C12.5469 23.7188 11.7969 24 11 24C10.2031 24 9.40625 23.7188 8.84375 23.1562C8.28125 22.5938 8 21.7969 8 21H11H14Z" fill="#1D1D1D"/>
</svg>
