<svg width="54" height="51" viewBox="0 0 54 51" fill="none" xmlns="http://www.w3.org/2000/svg">
<path d="M27 4.9375C19.6758 4.9375 13.0352 8.84375 9.32422 15.0938C5.71094 21.4414 5.71094 29.1562 9.32422 35.4062C13.0352 41.7539 19.6758 45.5625 27 45.5625C34.2266 45.5625 40.8672 41.7539 44.5781 35.4062C48.1914 29.1562 48.1914 21.4414 44.5781 15.0938C40.8672 8.84375 34.2266 4.9375 27 4.9375ZM27 50.25C18.0156 50.25 9.8125 45.5625 5.32031 37.75C0.828125 30.0352 0.828125 20.5625 5.32031 12.75C9.8125 5.03516 18.0156 0.25 27 0.25C35.8867 0.25 44.0898 5.03516 48.582 12.75C53.0742 20.5625 53.0742 30.0352 48.582 37.75C44.0898 45.5625 35.8867 50.25 27 50.25ZM20.1641 12.8477C21.1406 12.6523 22.1172 13.043 22.5078 14.0195L24.4609 18.707C24.7539 19.4883 24.5586 20.3672 23.875 20.9531L21.5312 22.9062C23.0938 26.3242 25.9258 29.1562 29.3438 30.7188L31.2969 28.375C31.8828 27.6914 32.7617 27.4961 33.543 27.7891L38.2305 29.7422C39.207 30.1328 39.5977 31.1094 39.4023 32.0859L38.2305 36.3828C37.9375 37.1641 37.2539 37.75 36.375 37.75C24.2656 37.75 14.5 27.9844 14.5 15.875C14.5 14.9961 15.0859 14.3125 15.8672 14.0195L20.1641 12.8477Z" fill="#28A745"/>
</svg>
