<svg width="24" height="25" viewBox="0 0 24 25" fill="none" xmlns="http://www.w3.org/2000/svg">
<path d="M17 20.4641H22V18.4641C22 17.8406 21.8057 17.2327 21.4441 16.7247C21.0826 16.2168 20.5718 15.8341 19.9827 15.6299C19.3937 15.4256 18.7556 15.41 18.1573 15.5851C17.5589 15.7603 17.03 16.1175 16.644 16.6071M17 20.4641H7M17 20.4641V18.4641C17 17.8081 16.874 17.1811 16.644 16.6071M16.644 16.6071C16.2726 15.6791 15.6318 14.8836 14.804 14.3232C13.9762 13.7629 12.9996 13.4634 12 13.4634C11.0004 13.4634 10.0238 13.7629 9.196 14.3232C8.36825 14.8836 7.72736 15.6791 7.356 16.6071M7 20.4641H2V18.4641C2.00005 17.8406 2.19434 17.2327 2.55586 16.7247C2.91739 16.2168 3.42819 15.8341 4.01725 15.6299C4.60632 15.4256 5.24438 15.41 5.84274 15.5851C6.4411 15.7603 6.97003 16.1175 7.356 16.6071M7 20.4641V18.4641C7 17.8081 7.126 17.1811 7.356 16.6071M15 7.46411C15 8.25976 14.6839 9.02282 14.1213 9.58543C13.5587 10.148 12.7956 10.4641 12 10.4641C11.2044 10.4641 10.4413 10.148 9.87868 9.58543C9.31607 9.02282 9 8.25976 9 7.46411C9 6.66846 9.31607 5.9054 9.87868 5.34279C10.4413 4.78018 11.2044 4.46411 12 4.46411C12.7956 4.46411 13.5587 4.78018 14.1213 5.34279C14.6839 5.9054 15 6.66846 15 7.46411ZM21 10.4641C21 10.9945 20.7893 11.5033 20.4142 11.8783C20.0391 12.2534 19.5304 12.4641 19 12.4641C18.4696 12.4641 17.9609 12.2534 17.5858 11.8783C17.2107 11.5033 17 10.9945 17 10.4641C17 9.93368 17.2107 9.42497 17.5858 9.0499C17.9609 8.67483 18.4696 8.46411 19 8.46411C19.5304 8.46411 20.0391 8.67483 20.4142 9.0499C20.7893 9.42497 21 9.93368 21 10.4641ZM7 10.4641C7 10.9945 6.78929 11.5033 6.41421 11.8783C6.03914 12.2534 5.53043 12.4641 5 12.4641C4.46957 12.4641 3.96086 12.2534 3.58579 11.8783C3.21071 11.5033 3 10.9945 3 10.4641C3 9.93368 3.21071 9.42497 3.58579 9.0499C3.96086 8.67483 4.46957 8.46411 5 8.46411C5.53043 8.46411 6.03914 8.67483 6.41421 9.0499C6.78929 9.42497 7 9.93368 7 10.4641Z" stroke="#FF5050" stroke-width="2" stroke-linecap="round" stroke-linejoin="round"/>
</svg>
