<svg width="18" height="19" viewBox="0 0 18 19" fill="none" xmlns="http://www.w3.org/2000/svg">
<path d="M2.125 2.625V6.375H5.875V2.625H2.125ZM0.25 2.625C0.25 1.60938 1.07031 0.75 2.125 0.75H5.875C6.89062 0.75 7.75 1.60938 7.75 2.625V6.375C7.75 7.42969 6.89062 8.25 5.875 8.25H2.125C1.07031 8.25 0.25 7.42969 0.25 6.375V2.625ZM2.125 12.625V16.375H5.875V12.625H2.125ZM0.25 12.625C0.25 11.6094 1.07031 10.75 2.125 10.75H5.875C6.89062 10.75 7.75 11.6094 7.75 12.625V16.375C7.75 17.4297 6.89062 18.25 5.875 18.25H2.125C1.07031 18.25 0.25 17.4297 0.25 16.375V12.625ZM15.875 2.625H12.125V6.375H15.875V2.625ZM12.125 0.75H15.875C16.8906 0.75 17.75 1.60938 17.75 2.625V6.375C17.75 7.42969 16.8906 8.25 15.875 8.25H12.125C11.0703 8.25 10.25 7.42969 10.25 6.375V2.625C10.25 1.60938 11.0703 0.75 12.125 0.75ZM12.125 12.625V16.375H15.875V12.625H12.125ZM10.25 12.625C10.25 11.6094 11.0703 10.75 12.125 10.75H15.875C16.8906 10.75 17.75 11.6094 17.75 12.625V16.375C17.75 17.4297 16.8906 18.25 15.875 18.25H12.125C11.0703 18.25 10.25 17.4297 10.25 16.375V12.625Z" fill="#1D1D1D"/>
</svg>
