<svg width="25" height="25" viewBox="0 0 25 25" fill="none" xmlns="http://www.w3.org/2000/svg">
<path d="M15.5 17.9641H20.5L19.095 16.5591C18.9063 16.3704 18.7567 16.1464 18.6546 15.8998C18.5525 15.6532 18.5 15.389 18.5 15.1221V11.9641C18.5002 10.723 18.1156 9.51245 17.3992 8.499C16.6829 7.48555 15.67 6.71908 14.5 6.30511V5.96411C14.5 5.43368 14.2893 4.92497 13.9142 4.5499C13.5391 4.17482 13.0304 3.96411 12.5 3.96411C11.9696 3.96411 11.4609 4.17482 11.0858 4.5499C10.7107 4.92497 10.5 5.43368 10.5 5.96411V6.30511C8.17 7.12911 6.5 9.35211 6.5 11.9641V15.1231C6.5 15.6611 6.286 16.1781 5.905 16.5591L4.5 17.9641H9.5M15.5 17.9641V18.9641C15.5 19.7598 15.1839 20.5228 14.6213 21.0854C14.0587 21.648 13.2956 21.9641 12.5 21.9641C11.7044 21.9641 10.9413 21.648 10.3787 21.0854C9.81607 20.5228 9.5 19.7598 9.5 18.9641V17.9641M15.5 17.9641H9.5" stroke="#FF5050" stroke-width="2" stroke-linecap="round" stroke-linejoin="round"/>
</svg>
