<svg width="65" height="45" viewBox="0 0 65 45" fill="none" xmlns="http://www.w3.org/2000/svg">
<path d="M36.6159 32.7617H14.9276C14.5398 32.7617 14.2251 32.4503 14.2251 32.0651C14.2251 31.6798 14.5398 31.3684 14.9276 31.3684H36.6159C37.0044 31.3684 37.3184 31.6798 37.3184 32.0651C37.3184 32.4503 37.0044 32.7617 36.6159 32.7617Z" fill="#FF5050"/>
<path d="M27.4546 37.8824H14.9276C14.5398 37.8824 14.2251 37.5709 14.2251 37.1857C14.2251 36.8004 14.5398 36.489 14.9276 36.489H27.4553C27.8431 36.489 28.1578 36.8004 28.1578 37.1857C28.1578 37.5709 27.8424 37.8824 27.4546 37.8824Z" fill="#FF5050"/>
<path d="M36.6159 37.8824H30.7269C30.3391 37.8824 30.0244 37.5709 30.0244 37.1857C30.0244 36.8004 30.3391 36.489 30.7269 36.489H36.6159C37.0044 36.489 37.3184 36.8004 37.3184 37.1857C37.3184 37.5709 37.0044 37.8824 36.6159 37.8824Z" fill="#FF5050"/>
<path d="M57.2975 37.8823H46.6406C46.2521 37.8823 45.9381 37.5709 45.9381 37.1856V32.0651C45.9381 31.6798 46.2521 31.3684 46.6406 31.3684H57.2975C57.686 31.3684 58 31.6798 58 32.0651V37.1856C58 37.5702 57.6853 37.8823 57.2975 37.8823ZM47.3431 36.4889H56.595V32.7617H47.3431V36.4889Z" fill="#FF5050"/>
<path d="M62.0387 8.40691H57.9438L57.3832 2.1954C57.28 1.04937 56.2515 0.203615 55.0994 0.302543L2.76876 4.95073C2.20887 5.00089 1.70166 5.26353 1.34128 5.69129C0.980896 6.11904 0.810189 6.66105 0.860066 7.2156L3.69536 38.611C3.793 39.6944 4.71398 40.5123 5.79091 40.5123C5.85344 40.5123 5.91596 40.5095 5.97918 40.5039L7.32658 40.3841V42.0812C7.32658 43.1958 8.24123 44.1022 9.36453 44.1022H62.0373C63.1613 44.1022 64.0752 43.1951 64.0752 42.0812V26.1177V14.9897V10.4286C64.0766 9.31397 63.162 8.40691 62.0387 8.40691ZM5.85484 39.1168C5.46355 39.1551 5.12916 38.8681 5.09474 38.4877L2.25945 7.09159C2.22502 6.71051 2.50954 6.37263 2.8938 6.33849L55.2237 1.69101C55.6024 1.65478 55.9494 1.93832 55.9831 2.3201L56.5325 8.40691H9.36594C8.24194 8.40691 7.32798 9.31397 7.32798 10.4279V14.989V26.117V38.9851L5.85484 39.1168ZM8.73228 16.3831H62.6716V24.7243H8.73228V16.3831ZM62.6716 42.0818C62.6716 42.4281 62.3878 42.7095 62.0387 42.7095H9.36594C9.01679 42.7095 8.73298 42.4281 8.73298 42.0818V26.1177H62.6716V42.0818ZM8.73228 14.9897V10.4286C8.73228 10.0824 9.01609 9.80094 9.36523 9.80094H62.038C62.3871 9.80094 62.6709 10.0824 62.6709 10.4286V14.9897H8.73228Z" fill="#FF5050"/>
</svg>
