<svg width="26" height="26" viewBox="0 0 26 26" fill="none" xmlns="http://www.w3.org/2000/svg">
<path d="M1 10.413H15.1176M1 10.413L12.0118 0.5H24.1529M1 10.413V13.2826H6.36471V16.413M15.1176 10.413L24.1529 0.5M15.1176 10.413V13.2826M24.1529 0.5V3.36957L18.5059 9.56522M1 21.6304H6.36471V16.413M1 21.6304V24.831H15.1176M1 21.6304L6.36471 16.413M15.1176 24.831V21.6304M15.1176 24.831L25 12.831V9.56522M15.1176 21.6304H10.0353V13.2826H15.1176M15.1176 21.6304L25 9.56522M15.1176 13.2826L18.5059 9.56522M18.5059 9.56522H25" stroke="white"/>
<path d="M1 10.413H15.1176M1 10.413L12.0118 0.5H24.1529M1 10.413V13.2826H6.36471V16.413M15.1176 10.413L24.1529 0.5M15.1176 10.413V13.2826M24.1529 0.5V3.36957L18.5059 9.56522M1 21.6304H6.36471V16.413M1 21.6304V24.831H15.1176M1 21.6304L6.36471 16.413M15.1176 24.831V21.6304M15.1176 24.831L25 12.831V9.56522M15.1176 21.6304H10.0353V13.2826H15.1176M15.1176 21.6304L25 9.56522M15.1176 13.2826L18.5059 9.56522M18.5059 9.56522H25" stroke="white"/>
</svg>
