<svg width="60" height="61" viewBox="0 0 60 61" fill="none" xmlns="http://www.w3.org/2000/svg">
<path d="M20.0001 43C16.8825 43.0021 13.8766 41.8391 11.5723 39.7393C9.26797 37.6394 7.83149 34.7542 7.54472 31.6498C7.25795 28.5455 8.14159 25.446 10.0223 22.9595C11.9029 20.473 14.6449 18.7791 17.7101 18.21C18.2485 15.3442 19.7715 12.7566 22.0157 10.8948C24.2598 9.03295 27.0841 8.01392 30.0001 8.01392C32.9161 8.01392 35.7403 9.03295 37.9845 10.8948C40.2287 12.7566 41.7517 15.3442 42.2901 18.21C45.3451 18.7907 48.0741 20.4887 49.9447 22.9728C51.8153 25.4569 52.6932 28.5489 52.4072 31.6454C52.1211 34.7419 50.6916 37.6207 48.3976 39.7201C46.1036 41.8195 43.1097 42.9889 40.0001 43M22.5001 30.5L30.0001 23M30.0001 23L37.5001 30.5M30.0001 23V53" stroke="#B3B3B3" stroke-width="2" stroke-linecap="round" stroke-linejoin="round"/>
</svg>
